<svg width="100" height="100" viewBox="0 0 100 100" fill="none" xmlns="http://www.w3.org/2000/svg">
<path d="M1.5 1.5H98.5V98.5H1.5V1.5Z" stroke="url(#paint0_linear_32_341)" stroke-width="3"/>
<path d="M63.0098 68.5H38.4098V62.4L49.6098 52.85C51.4764 51.25 52.8598 49.8 53.7598 48.5C54.6598 47.1667 55.1098 45.75 55.1098 44.25V43.75C55.1098 42.0833 54.6431 40.8167 53.7098 39.95C52.7764 39.0833 51.4764 38.65 49.8098 38.65C47.9764 38.65 46.5764 39.15 45.6098 40.15C44.6431 41.15 43.9431 42.3833 43.5098 43.85L37.8098 41.7C38.1764 40.5667 38.6931 39.4833 39.3598 38.45C40.0598 37.3833 40.9098 36.45 41.9098 35.65C42.9431 34.85 44.1598 34.2167 45.5598 33.75C46.9598 33.25 48.5598 33 50.3598 33C52.2264 33 53.8764 33.2667 55.3098 33.8C56.7764 34.3 58.0098 35.0167 59.0098 35.95C60.0098 36.85 60.7598 37.9333 61.2598 39.2C61.7931 40.4667 62.0598 41.85 62.0598 43.35C62.0598 44.7833 61.8264 46.1 61.3598 47.3C60.9264 48.5 60.3098 49.65 59.5098 50.75C58.7098 51.8167 57.7598 52.85 56.6598 53.85C55.5931 54.85 54.4264 55.85 53.1598 56.85L45.5598 63H63.0098V68.5Z" fill="#7D256F"/>
<defs>
<linearGradient id="paint0_linear_32_341" x1="-43.5" y1="133.5" x2="56.5" y2="133.5" gradientUnits="userSpaceOnUse">
<stop offset="0.015625" stop-color="#EC238D"/>
<stop offset="0.416667" stop-color="#B82070"/>
<stop offset="1" stop-color="#7D256F"/>
</linearGradient>
</defs>
</svg>
