<svg width="100" height="100" viewBox="0 0 100 100" fill="none" xmlns="http://www.w3.org/2000/svg">
<path d="M1.5 1.5H98.5V98.5H1.5V1.5Z" stroke="url(#paint0_linear_32_344)" stroke-width="3"/>
<path d="M49.1098 47.7C51.2098 47.7 52.7431 47.2833 53.7098 46.45C54.7098 45.6167 55.2098 44.5667 55.2098 43.3V42.95C55.2098 41.5167 54.7264 40.4 53.7598 39.6C52.8264 38.8 51.5264 38.4 49.8598 38.4C48.2598 38.4 46.8598 38.7667 45.6598 39.5C44.4598 40.2333 43.4264 41.2667 42.5598 42.6L38.3098 38.8C38.9098 38 39.5764 37.25 40.3098 36.55C41.0764 35.8167 41.9264 35.2 42.8598 34.7C43.8264 34.1667 44.8931 33.75 46.0598 33.45C47.2264 33.15 48.5598 33 50.0598 33C51.8264 33 53.4431 33.2167 54.9098 33.65C56.4098 34.05 57.6764 34.65 58.7098 35.45C59.7764 36.25 60.5931 37.2167 61.1598 38.35C61.7598 39.45 62.0598 40.7 62.0598 42.1C62.0598 43.2 61.8764 44.2 61.5098 45.1C61.1431 46 60.6431 46.7833 60.0098 47.45C59.4098 48.1167 58.6931 48.6667 57.8598 49.1C57.0598 49.5333 56.1931 49.85 55.2598 50.05V50.3C56.2931 50.5 57.2598 50.8333 58.1598 51.3C59.0598 51.7333 59.8431 52.3 60.5098 53C61.1764 53.7 61.7098 54.55 62.1098 55.55C62.5098 56.5167 62.7098 57.6167 62.7098 58.85C62.7098 60.3833 62.3931 61.7833 61.7598 63.05C61.1264 64.3167 60.2264 65.4 59.0598 66.3C57.9264 67.2 56.5431 67.9 54.9098 68.4C53.3098 68.8667 51.5098 69.1 49.5098 69.1C47.8431 69.1 46.3598 68.9167 45.0598 68.55C43.7598 68.2167 42.6098 67.75 41.6098 67.15C40.6098 66.55 39.7431 65.8667 39.0098 65.1C38.2764 64.3 37.6264 63.4833 37.0598 62.65L41.9098 58.9C42.7431 60.3 43.7264 61.45 44.8598 62.35C46.0264 63.25 47.6098 63.7 49.6098 63.7C51.6098 63.7 53.1431 63.25 54.2098 62.35C55.3098 61.4167 55.8598 60.1333 55.8598 58.5V58.1C55.8598 56.5 55.2764 55.2833 54.1098 54.45C52.9431 53.5833 51.2931 53.15 49.1598 53.15H45.6598V47.7H49.1098Z" fill="#7D256F"/>
<defs>
<linearGradient id="paint0_linear_32_344" x1="-43.5" y1="133.5" x2="56.5" y2="133.5" gradientUnits="userSpaceOnUse">
<stop offset="0.015625" stop-color="#EC238D"/>
<stop offset="0.416667" stop-color="#B82070"/>
<stop offset="1" stop-color="#7D256F"/>
</linearGradient>
</defs>
</svg>
