<svg width="50" height="33" viewBox="0 0 50 33" fill="none" xmlns="http://www.w3.org/2000/svg">
<path d="M23.9122 16.96C23.9122 16.8502 24.0735 16.0882 23.2326 16.0708C22.7681 16.0708 22.4343 16.3877 22.2985 16.96H23.9122Z" fill="#393939"/>
<path d="M18.6513 17.8095C18.4974 17.792 18.4291 17.7871 18.3226 17.7871C17.489 17.7871 17.0687 18.0386 17.0687 18.5394C17.0687 18.8565 17.2741 19.0504 17.5955 19.0504C18.1924 19.0504 18.6257 18.5395 18.6513 17.8095Z" fill="#393939"/>
<path d="M39.1795 16.1245C38.4434 16.1245 37.9851 17.0144 37.9851 17.8018C37.9851 18.4669 38.297 18.9097 38.8162 18.9028C39.5279 18.9028 39.9781 18.2372 39.9781 17.1171C39.9781 16.6076 39.7745 16.1245 39.1795 16.1245Z" fill="#393939"/>
<path d="M47.243 0.974121H2.6609C1.19187 0.974121 -0.00012207 2.19169 -0.00012207 3.69374V30.2739C-0.00012207 31.7762 1.19122 32.9935 2.6609 32.9935H47.243C48.712 32.9935 49.904 31.7759 49.904 30.2739V3.69374C49.9039 2.19143 48.7125 0.974121 47.2429 0.974121L47.243 0.974121ZM33.2385 30.8139C30.1178 30.8139 27.2386 29.7344 24.9423 27.9182C22.6456 29.7344 19.768 30.8139 16.6462 30.8139C9.1609 30.8139 3.0718 24.5955 3.0718 16.953C3.0718 9.31194 9.16071 3.09463 16.6462 3.09463C19.7681 3.09463 22.6457 4.17668 24.9423 5.99104C27.2386 4.17668 30.1177 3.09463 33.2385 3.09463C40.7263 3.09463 46.8154 9.31201 46.8154 16.953C46.8153 24.5959 40.7262 30.8139 33.2385 30.8139Z" fill="#393939"/>
<path d="M33.2385 4.33643C30.4851 4.33643 27.9434 5.25758 25.8872 6.81162C27.8948 8.71745 29.3341 11.2355 29.9253 14.068H28.681C28.1008 11.5335 26.7697 9.29213 24.9425 7.60264C23.1166 9.29232 21.786 11.5337 21.2051 14.068H19.9616C20.5521 11.2352 21.992 8.71713 23.9981 6.81162C21.9446 5.25758 19.4005 4.33643 16.6462 4.33643C9.82182 4.33643 4.28784 9.98431 4.28784 16.9531C4.28784 23.9223 9.82182 29.5742 16.6462 29.5742C19.4002 29.5742 21.9443 28.6524 23.9981 27.0984C22.245 25.4308 20.9239 23.3007 20.2234 20.894H21.4953C22.1718 22.9975 23.375 24.855 24.9425 26.3079C26.5137 24.855 27.7145 22.9975 28.391 20.894H29.6626C28.9645 23.3007 27.6413 25.4307 25.8873 27.0984C27.9435 28.6524 30.4853 29.5742 33.2385 29.5742C40.0648 29.5742 45.5982 23.9222 45.5982 16.9531C45.598 9.98386 40.0648 4.33643 33.2385 4.33643H33.2385ZM13.2449 20.0281L14.1137 15.3537L12.1135 20.0281H10.7804L10.5378 15.3821L9.6663 20.0281H8.33983L9.46976 13.948H11.7531L11.8738 17.7104L13.4814 13.948H15.8584L14.7062 20.0281H13.2449V20.0281ZM20.1596 17.3798C20.1094 17.7049 19.7604 19.5825 19.7237 20.0281H18.5018L18.5317 19.5048C18.1596 19.9142 17.6649 20.1081 16.9904 20.1081C16.1946 20.1081 15.6477 19.5517 15.6477 18.7532C15.6477 17.5381 16.5973 16.8371 18.228 16.8371C18.3948 16.8371 18.6098 16.8476 18.8278 16.8732C18.8726 16.7089 18.8847 16.6399 18.8847 16.5513C18.8847 16.2185 18.6294 16.0965 17.9414 16.0965C17.2655 16.0994 16.8094 16.2018 16.3864 16.318L16.5945 15.2032C17.3273 15.0144 17.8071 14.9412 18.3487 14.9412C19.6113 14.9412 20.2797 15.4448 20.2797 16.3957C20.2896 16.6483 20.2031 17.1591 20.1596 17.3798ZM25.0591 17.9616H22.1502C22.0451 18.6717 22.5536 18.9843 23.4196 18.9843C23.9382 18.9843 24.4057 18.8901 24.9246 18.6758L24.6968 19.9116C24.1946 20.0433 23.7082 20.1081 23.1955 20.1081C21.5606 20.1081 20.7066 19.3469 20.7066 17.8898C20.7066 16.1916 21.7911 14.9413 23.2656 14.9413C24.4694 14.9413 25.2389 15.6434 25.2389 16.7404C25.2389 17.1029 25.1873 17.4574 25.0591 17.9616ZM29.3293 16.1916C28.9496 16.1438 28.5501 16.116 28.2584 16.116C27.7758 16.116 27.5291 16.2533 27.5291 16.5238C27.5291 16.7534 27.6008 16.8109 28.2233 17.0641C28.9711 17.3637 29.2721 17.766 29.2721 18.4474C29.2721 19.5825 28.5486 20.1081 26.979 20.1081C26.4498 20.0971 25.8532 20.0627 25.4289 19.9614L25.642 18.8184C26.1181 18.9538 26.5233 19.0095 26.9668 19.0123C27.5576 19.0149 27.8219 18.8738 27.8219 18.5594C27.8219 18.3339 27.7271 18.2614 27.1262 18.0092C26.3387 17.6883 25.992 17.253 25.992 16.6248C25.9869 15.7058 26.5637 14.9413 28.2299 14.9413C28.5685 14.9413 29.1557 14.9856 29.5407 15.038L29.3293 16.1916V16.1916ZM32.4852 16.2662H31.7356C31.7356 16.2662 31.3245 18.3726 31.3245 18.5332C31.3245 18.7905 31.4764 18.9014 31.8235 18.9014C31.9903 18.9014 32.1178 18.8874 32.2194 18.8519H32.2195H32.2194L32.0241 19.9503C31.6244 20.0628 31.3108 20.1082 30.9751 20.1082C30.2255 20.1082 29.8175 19.718 29.8175 19.0232C29.7925 18.8351 29.9772 17.9513 30.018 17.705C30.0584 17.4574 30.7091 13.8666 30.7091 13.8666H32.1623L31.9402 15.0546H32.6857L32.4852 16.2662V16.2662ZM34.2769 20.0281H32.8075L32.8701 19.69C33.1247 18.1506 33.4531 16.5903 33.6374 15.0511H35.001C35.0202 15.2843 34.9437 15.5389 34.9032 15.8054C35.3534 15.2194 35.8522 14.8036 36.6247 15.0941C36.6247 15.0941 36.1478 16.3419 36.0907 16.5016C34.9821 16.2019 34.8057 17.0505 34.2769 20.0281V20.0281ZM38.6946 20.1081C37.0576 20.1081 36.3972 19.0922 36.3972 17.851C36.3972 16.116 37.5153 14.9412 39.2463 14.9412C40.7499 14.9412 41.5482 15.9085 41.5482 17.1499C41.5483 19.2088 40.3499 20.1081 38.6946 20.1081Z" fill="#393939"/>
</svg>
