<svg width="40" height="40" viewBox="0 0 40 40" fill="none" xmlns="http://www.w3.org/2000/svg">
<g clip-path="url(#clip0_40_93)">
<path d="M17.6224 0C22.4887 0 26.8942 1.95343 30.0833 5.11226C33.2724 8.27077 35.2448 12.634 35.2448 17.4536C35.2448 20.9796 34.1888 24.2615 32.3732 27.0063L40 35.239L34.7409 40.0003L27.3856 31.9848C24.5909 33.8305 21.2335 34.9069 17.6224 34.9069C12.7561 34.9069 8.35056 32.9532 5.16146 29.7947C1.97236 26.6359 0 22.2726 0 17.4533C0 12.6337 1.97236 8.27044 5.16146 5.11194C8.35056 1.95343 12.7564 0 17.6224 0ZM28.693 6.48888C25.8602 3.68291 21.9461 1.94758 17.6224 1.94758C13.2987 1.94758 9.38489 3.68324 6.55174 6.48888C3.71859 9.29485 1.96611 13.1714 1.96611 17.4533C1.96611 21.7352 3.71859 25.6118 6.55174 28.4174C9.38489 31.2237 13.2987 32.9587 17.6224 32.9587C21.9461 32.9587 25.8602 31.2237 28.693 28.4174C31.5262 25.6118 33.2783 21.7355 33.2783 17.4533C33.2783 13.1711 31.5262 9.29485 28.693 6.48888Z" fill="#BA2171"/>
</g>
<defs>
<clipPath id="clip0_40_93">
<rect width="40" height="40" fill="white"/>
</clipPath>
</defs>
</svg>
