<svg width="50" height="33" viewBox="0 0 50 33" fill="none" xmlns="http://www.w3.org/2000/svg">
<g clip-path="url(#clip0_78_629)">
<path d="M47.4872 0H2.67949C1.19872 0 0 1.22436 0 2.73077V29.4167C0 30.9231 1.19872 32.1474 2.67308 32.1474H47.4808C48.9551 32.1474 50.1539 30.9231 50.1539 29.4167V2.73077C50.1603 1.22436 48.9615 0 47.4872 0ZM18.6603 22.2756H14.8141V14.9679C14.8141 14.8269 14.6987 14.7115 14.5577 14.7115C14.4295 14.7115 14.3269 14.8013 14.3077 14.9231L12.0577 22.2756H9.29487L7.05128 14.9167C7.03205 14.8013 6.92949 14.7115 6.80128 14.7115C6.66026 14.7115 6.54487 14.8269 6.54487 14.9679V22.2756H2.69872V9.71154H6H6.98718C7.69231 9.71154 8.4359 10.2628 8.64103 10.9359L10.5128 17.0577C10.609 17.3654 10.7564 17.359 10.8526 17.0577L12.7244 10.9359C12.9295 10.2564 13.6731 9.71154 14.3782 9.71154H15.359H18.6603V22.2756ZM32.9551 22.2756H29.109V14.8077C29.1026 14.6859 29.0064 14.5833 28.8782 14.5833C28.7885 14.5833 28.718 14.6282 28.6795 14.7051V14.7115C28.6795 14.7179 28.6731 14.7244 28.6731 14.7308L25.5321 21.4679C25.3333 21.9038 24.7949 22.2564 24.3077 22.2821H20.4615V9.71795H24.3077V17.0256C24.3077 17.1667 24.4231 17.2821 24.5641 17.2821C24.6538 17.2821 24.7308 17.2372 24.7756 17.1731C24.7885 17.1474 24.8013 17.1282 24.8077 17.0962L27.8654 10.5321C28.0705 10.0897 28.6218 9.73718 29.109 9.71795H32.9551V22.2756ZM43.0833 18.2372H38.7244V22.3397H34.8782V15.4167H47.0641C46.4744 17.0513 44.9167 18.2244 43.0833 18.2372ZM47.2244 14.7756C47.2244 14.7756 40.5449 14.7756 40.5385 14.7756C37.2692 14.7756 34.5897 12.5385 34.3654 9.71154H43.0705C45.4103 9.73077 47.3013 11.6282 47.3013 13.9744C47.3013 14.25 47.2756 14.5192 47.2244 14.7756Z" fill="#393939"/>
</g>
<defs>
<clipPath id="clip0_78_629">
<rect width="50" height="32.0513" fill="white"/>
</clipPath>
</defs>
</svg>
