<svg width="123" height="123" viewBox="0 0 123 123" fill="none" xmlns="http://www.w3.org/2000/svg">
<path d="M13.7017 49.5392L8.00169 33.6292C7.84764 33.1998 7.77976 32.7443 7.80195 32.2886C7.82414 31.833 7.93596 31.3862 8.13101 30.9738C8.32606 30.5614 8.60051 30.1915 8.93867 29.8853C9.27682 29.5791 9.67203 29.3425 10.1017 29.1892C10.3646 29.1008 10.6361 29.0405 10.9117 29.0092L27.3017 27.2992L29.0017 10.7892C29.0479 10.3353 29.1832 9.89504 29.3997 9.49349C29.6163 9.09195 29.9099 8.73705 30.2638 8.44912C30.6177 8.16118 31.0249 7.94586 31.4621 7.81546C31.8993 7.68507 32.3579 7.64217 32.8117 7.68922C33.0537 7.7093 33.2922 7.75969 33.5217 7.83922L49.5217 11.9492L58.8017 1.20922C59.4033 0.512488 60.2557 0.0816273 61.1735 0.0104555C62.0912 -0.0607164 62.9999 0.233565 63.7017 0.829222C63.9309 1.03128 64.1356 1.2595 64.3117 1.50922L73.3117 13.6792L89.2217 7.87922C89.6542 7.72241 90.1136 7.65293 90.5731 7.67479C91.0327 7.69665 91.4833 7.80942 91.899 8.00657C92.3147 8.20372 92.6872 8.48135 92.9949 8.82338C93.3026 9.16541 93.5394 9.56507 93.6917 9.99922C93.7892 10.267 93.853 10.5458 93.8817 10.8292L95.5817 27.3392L112.092 28.9992C112.659 29.0566 113.203 29.2528 113.676 29.5705C114.15 29.8882 114.537 30.3177 114.805 30.8208C115.073 31.324 115.213 31.8854 115.212 32.4555C115.212 33.0255 115.071 33.5866 114.802 34.0892L107.502 47.8592L121.502 58.6892C121.863 58.9673 122.167 59.3143 122.394 59.71C122.621 60.1058 122.767 60.5426 122.825 60.9952C122.883 61.4479 122.85 61.9074 122.729 62.3475C122.609 62.7875 122.402 63.1993 122.122 63.5592C121.92 63.8292 121.677 64.0655 121.402 64.2592L109.202 73.3292L115.002 89.2392C115.314 90.1052 115.271 91.0598 114.881 91.8939C114.491 92.7279 113.787 93.3735 112.922 93.6892C112.654 93.7867 112.375 93.8505 112.092 93.8792L95.5817 95.5792L93.8817 111.999C93.7858 112.915 93.331 113.755 92.617 114.336C91.9029 114.917 90.9877 115.192 90.0717 115.099C89.6285 115.052 89.1979 114.923 88.8017 114.719L75.0017 107.489L64.1517 121.489C63.8223 121.92 63.3964 122.267 62.9083 122.503C62.4201 122.738 61.8834 122.856 61.3414 122.846C60.7994 122.837 60.2673 122.7 59.7879 122.447C59.3086 122.194 58.8954 121.831 58.5817 121.389L49.5017 109.139L33.5917 114.879C33.104 115.05 32.5844 115.11 32.0706 115.055C31.5568 114.999 31.0619 114.83 30.622 114.559C30.1821 114.287 29.8083 113.921 29.528 113.487C29.2477 113.053 29.0679 112.562 29.0017 112.049L27.3017 97.2892L10.5317 93.8192C10.0855 93.7286 9.66161 93.5508 9.28427 93.2961C8.90693 93.0413 8.58358 92.7146 8.33275 92.3346C8.08192 91.9547 7.90855 91.529 7.82257 91.0819C7.73659 90.6348 7.73969 90.1751 7.83169 89.7292C7.86269 89.5164 7.91979 89.3081 8.00169 89.1092L13.7017 73.3392L1.40169 64.2292C0.663065 63.6793 0.172542 62.8589 0.0375862 61.948C-0.0973693 61.037 0.134247 60.1097 0.681693 59.3692C0.897222 59.0802 1.1571 58.8271 1.45169 58.6192L13.7017 49.5392ZM76.0917 43.3392L55.6617 78.8592C55.4681 79.2115 55.2439 79.5462 54.9917 79.8592C54.768 80.1478 54.4893 80.3891 54.1717 80.5692C53.8271 80.739 53.4542 80.844 53.0717 80.8792C52.637 80.9305 52.1994 80.9539 51.7617 80.9492H47.9017C47.5958 80.9492 47.3022 80.8284 47.085 80.613C46.8677 80.3976 46.7443 80.1051 46.7417 79.7992C46.7421 79.5598 46.8153 79.3261 46.9517 79.1292L67.3917 43.5692C67.5803 43.2185 67.7977 42.884 68.0417 42.5692V42.5092C68.2605 42.2475 68.5248 42.0273 68.8217 41.8592C69.1939 41.6938 69.5946 41.6021 70.0017 41.5892V41.5892C70.4297 41.5381 70.8606 41.5147 71.2917 41.5192H75.1417C75.4476 41.5192 75.7412 41.6401 75.9584 41.8554C76.1757 42.0708 76.2991 42.3633 76.3017 42.6692C76.3013 42.9087 76.2281 43.1424 76.0917 43.3392V43.3392ZM68.6917 79.4092C66.9717 77.6092 66.1017 74.8492 66.1017 71.1292C66.1017 67.4092 66.9717 64.6492 68.6917 62.8492C70.4117 61.0492 73.2117 60.1492 77.0917 60.1492C80.9717 60.1492 83.7717 61.0492 85.4917 62.8492C87.2117 64.6492 88.0717 67.4092 88.0717 71.1292C88.0717 74.8492 87.2117 77.6092 85.4917 79.4092C83.7717 81.2092 80.9717 82.1092 77.0917 82.1092C73.2117 82.1092 70.4117 81.2092 68.6917 79.4092ZM74.6917 67.9692V75.9692H75.9917C77.0877 75.9934 78.1833 75.9062 79.2617 75.7092C79.4817 75.5292 79.5917 75.0392 79.5917 74.2492V66.2492H76.5917C76.0512 66.1911 75.5051 66.281 75.0117 66.5092C74.8017 66.6892 74.6917 67.1792 74.6917 67.9692ZM37.3917 59.9992C35.6717 58.1992 34.8117 55.4392 34.8117 51.7192C34.8117 47.9992 35.6717 45.2392 37.3917 43.4392C39.1117 41.6392 41.9117 40.7392 45.7917 40.7392C49.6717 40.7392 52.4717 41.6392 54.1917 43.4392C55.9117 45.2392 56.7717 47.9992 56.7717 51.7192C56.7717 55.4392 55.9117 58.1992 54.1917 59.9992C52.4717 61.7992 49.6717 62.6992 45.7917 62.6992C41.9117 62.6992 39.1117 61.7992 37.3917 59.9992ZM43.3917 48.5592V56.5592H46.3917C46.9299 56.6159 47.4733 56.5225 47.9617 56.2892C48.1817 56.1092 48.2917 55.6192 48.2917 54.8292V46.8292H46.9317C45.8385 46.8023 44.7456 46.8928 43.6717 47.0992C43.4517 47.2692 43.3417 47.7592 43.3417 48.5492L43.3917 48.5592ZM16.0017 35.4592L21.0017 49.4592C21.2996 50.1761 21.3492 50.9721 21.1426 51.7205C20.936 52.4688 20.4852 53.1266 19.8617 53.5892L9.30169 61.4392L19.9017 69.2992C20.5075 69.7464 20.952 70.378 21.1684 71.0992C21.3848 71.8205 21.3614 72.5924 21.1017 73.2992L15.8417 87.8392L31.0017 90.9992C31.77 91.101 32.4823 91.4563 33.0257 92.0088C33.5692 92.5613 33.9126 93.2794 34.0017 94.0492L35.4917 106.949L49.5417 101.889C50.2453 101.606 51.0223 101.562 51.7537 101.762C52.4851 101.962 53.1307 102.397 53.5917 102.999L61.5017 113.679L71.2417 101.069C71.7287 100.383 72.4479 99.8965 73.266 99.6998C74.0842 99.503 74.9459 99.6094 75.6917 99.9992L87.5017 106.209L89.0017 92.0992C89.0811 91.3108 89.428 90.5732 89.9847 90.0093C90.5414 89.4453 91.2743 89.0889 92.0617 88.9992L107.002 87.4292L101.802 73.3192C101.537 72.6149 101.508 71.8433 101.721 71.1215C101.934 70.3996 102.377 69.7669 102.982 69.3192L113.652 61.3992L101.132 51.7292C100.414 51.2449 99.901 50.5118 99.6923 49.6714C99.4836 48.831 99.5938 47.9431 100.002 47.1792L106.262 35.3792L92.1017 33.9292C91.3063 33.846 90.5638 33.4913 89.9992 32.9249C89.4347 32.3585 89.0824 31.6149 89.0017 30.8192L87.4317 15.9292L73.3217 21.0792C72.617 21.341 71.8464 21.3675 71.1254 21.1548C70.4043 20.9421 69.7715 20.5016 69.3217 19.8992L61.2417 8.99922L53.4417 18.0692C53.0186 18.5604 52.4668 18.9236 51.8484 19.1179C51.23 19.3123 50.5696 19.33 49.9417 19.1692L35.5017 15.4992L33.9217 30.7792C33.8494 31.5809 33.5006 32.3326 32.9351 32.9054C32.3695 33.4782 31.6224 33.8366 30.8217 33.9192L16.0017 35.4592Z" fill="#EC238D"/>
</svg>
