<svg width="30" height="30" viewBox="0 0 30 30" fill="none" xmlns="http://www.w3.org/2000/svg">
<path d="M15 27.5002C12.5277 27.5002 10.111 26.7671 8.05538 25.3936C5.99976 24.0201 4.39761 22.0679 3.45151 19.7838C2.50542 17.4997 2.25787 14.9864 2.74019 12.5616C3.2225 10.1369 4.41301 7.90957 6.16117 6.16141C7.90933 4.41325 10.1366 3.22274 12.5614 2.74043C14.9861 2.25811 17.4995 2.50565 19.7835 3.45175C22.0676 4.39784 24.0199 6 25.3934 8.05562C26.7669 10.1112 27.5 12.528 27.5 15.0002C27.5 16.6418 27.1767 18.2672 26.5485 19.7838C25.9203 21.3004 24.9996 22.6783 23.8388 23.8391C22.6781 24.9998 21.3001 25.9206 19.7835 26.5487C18.267 27.1769 16.6415 27.5002 15 27.5002V27.5002ZM15 5.00024C13.0222 5.00024 11.0888 5.58673 9.4443 6.68555C7.79981 7.78436 6.51809 9.34615 5.76121 11.1734C5.00433 13.0007 4.8063 15.0113 5.19215 16.9511C5.57801 18.891 6.53041 20.6728 7.92894 22.0713C9.32746 23.4698 11.1093 24.4222 13.0491 24.8081C14.9889 25.1939 16.9996 24.9959 18.8268 24.239C20.6541 23.4822 22.2159 22.2004 23.3147 20.5559C24.4135 18.9115 25 16.9781 25 15.0002C25 12.3481 23.9464 9.80454 22.0711 7.92918C20.1957 6.05381 17.6522 5.00024 15 5.00024V5.00024Z" fill="#231F20"/>
<path d="M15.425 20.6876C15.1187 20.9699 14.7362 21.1559 14.3251 21.2226C13.9139 21.2893 13.4923 21.2336 13.1125 21.0626C12.7438 20.9135 12.428 20.6578 12.2053 20.3283C11.9826 19.9988 11.8633 19.6103 11.8625 19.2126V10.7876C11.8633 10.3899 11.9826 10.0015 12.2053 9.67198C12.428 9.34245 12.7438 9.08678 13.1125 8.93764C13.3835 8.81475 13.6775 8.75084 13.975 8.75015C14.5111 8.75252 15.0275 8.95284 15.425 9.31265L20 13.5251C20.2046 13.7125 20.368 13.9404 20.4798 14.1943C20.5916 14.4483 20.6493 14.7227 20.6493 15.0001C20.6493 15.2776 20.5916 15.552 20.4798 15.8059C20.368 16.0599 20.2046 16.2878 20 16.4751L15.425 20.6876ZM14.375 11.7501V18.2501L17.8875 15.0001L14.375 11.7501Z" fill="#231F20"/>
</svg>
