<svg width="497" height="497" viewBox="0 0 497 497" fill="none" xmlns="http://www.w3.org/2000/svg">
<path d="M496.158 248.082C496.158 111.06 385.089 0 248.083 0C111.07 0 0 111.06 0 248.082C0 385.083 111.07 496.152 248.083 496.152C385.089 496.152 496.158 385.083 496.158 248.082Z" fill="black"/>
<path d="M138.216 173.589C138.216 159.674 142.683 145.574 151.619 131.292C160.552 117.01 173.592 105.182 190.73 95.806C207.869 86.433 227.864 81.744 250.715 81.744C271.953 81.744 290.705 85.665 306.965 93.499C323.225 101.337 335.783 111.994 344.648 125.469C353.509 138.948 357.941 153.594 357.941 169.414C357.941 181.866 355.414 192.781 350.36 202.153C345.306 211.529 339.298 219.622 332.342 226.432C325.383 233.244 312.896 244.707 294.879 260.82C289.898 265.362 285.904 269.355 282.904 272.796C279.9 276.239 277.665 279.388 276.202 282.243C274.736 285.1 273.599 287.956 272.796 290.813C271.989 293.668 270.781 298.688 269.171 305.864C266.387 321.1 257.67 328.716 243.024 328.716C235.406 328.716 228.996 326.227 223.798 321.245C218.597 316.266 215.998 308.868 215.998 299.053C215.998 286.748 217.9 276.091 221.711 267.083C225.519 258.073 230.572 250.163 236.872 243.353C243.168 236.541 251.666 228.449 262.36 219.073C271.733 210.871 278.51 204.681 282.685 200.506C286.86 196.331 290.375 191.683 293.232 186.553C296.088 181.427 297.517 175.862 297.517 169.854C297.517 158.136 293.157 148.249 284.443 140.191C275.726 132.137 264.482 128.106 250.715 128.106C234.599 128.106 222.734 132.171 215.119 140.301C207.501 148.431 201.057 160.406 195.783 176.226C190.802 192.781 181.353 201.055 167.438 201.055C159.232 201.055 152.311 198.164 146.674 192.376C141.035 186.59 138.216 180.328 138.216 173.589ZM245.442 414.409C236.505 414.409 228.705 411.514 222.041 405.729C215.374 399.945 212.043 391.852 212.043 381.45C212.043 372.221 215.263 364.459 221.711 358.159C228.155 351.862 236.065 348.711 245.441 348.711C254.67 348.711 262.432 351.862 268.732 358.159C275.028 364.459 278.18 372.221 278.18 381.45C278.18 391.705 274.884 399.762 268.292 405.62C261.7 411.478 254.084 414.409 245.442 414.409Z" fill="white"/>
</svg>
