<svg width="90" height="90" viewBox="0 0 90 90" fill="none" xmlns="http://www.w3.org/2000/svg">
<path d="M45 82.5003C37.5832 82.5003 30.333 80.3009 24.1661 76.1804C17.9993 72.0598 13.1928 66.2031 10.3545 59.3509C7.51625 52.4987 6.77362 44.9587 8.22057 37.6844C9.66751 30.4101 13.239 23.7282 18.4835 18.4838C23.728 13.2393 30.4098 9.66776 37.6841 8.22081C44.9584 6.77387 52.4984 7.51649 59.3506 10.3548C66.2029 13.1931 72.0596 17.9995 76.1801 24.1664C80.3007 30.3332 82.5 37.5835 82.5 45.0003C82.5 54.9459 78.5491 64.4841 71.5165 71.5168C64.4839 78.5494 54.9456 82.5003 45 82.5003ZM45 15.0003C39.0666 15.0003 33.2664 16.7597 28.3329 20.0562C23.3994 23.3526 19.5543 28.038 17.2836 33.5198C15.013 39.0015 14.4189 45.0335 15.5765 50.853C16.734 56.6724 19.5912 62.0179 23.7868 66.2135C27.9824 70.409 33.3279 73.2663 39.1473 74.4238C44.9667 75.5814 50.9987 74.9873 56.4805 72.7166C61.9623 70.446 66.6477 66.6008 69.9441 61.6674C73.2405 56.7339 75 50.9337 75 45.0003C75 37.0438 71.8393 29.4131 66.2132 23.7871C60.5871 18.161 52.9565 15.0003 45 15.0003Z" fill="white"/>
</svg>
