<svg width="50" height="33" viewBox="0 0 50 33" fill="none" xmlns="http://www.w3.org/2000/svg">
<path d="M47.3338 0H2.66612C1.19428 0 0 1.25485 0 2.80291V30.1971C0 31.7455 1.1937 33 2.66612 33H47.3338C48.8057 33 50 31.7451 50 30.1971V2.80291C50 1.25459 48.8063 0 47.3338 0V0ZM9.93046 23.3635L6.76794 11.4505C5.67443 10.8133 4.42664 10.3012 3.03133 9.94621L3.07673 9.66087H8.81283C9.5855 9.69106 10.2101 9.95024 10.4254 10.8188L11.6725 17.121L11.6727 17.1217L12.0438 19.0225L15.5264 9.66952H19.2945L13.6942 23.3584L9.93046 23.363V23.3635ZM22.0655 23.3752H18.5098L18.5098 23.3751L20.7339 9.65922H24.2912L22.0655 23.3751V23.3752ZM28.2559 23.5787C26.6606 23.5615 25.1242 23.2299 24.2933 22.847L24.7926 19.7766L25.2508 19.9946C26.4191 20.5066 27.1755 20.7145 28.5993 20.7145C29.6217 20.7145 30.7187 20.2945 30.7275 19.3752C30.7341 18.7748 30.2686 18.3461 28.884 17.6738C27.5347 17.0176 25.7472 15.9183 25.767 13.9475C25.7881 11.2814 28.264 9.42105 31.779 9.42105C33.1581 9.42105 34.2625 9.71927 34.9673 9.99714L34.4851 12.97L34.1662 12.8116C33.5097 12.5338 32.6671 12.2672 31.5039 12.2861C30.1113 12.2861 29.4667 12.8958 29.4667 13.4659C29.4586 14.1084 30.2201 14.5318 31.4635 15.1662C33.5158 16.1452 34.4635 17.3326 34.45 18.8928C34.4225 21.7398 31.9951 23.5787 28.2559 23.5787V23.5787ZM43.6675 23.3796C43.6675 23.3796 43.3412 21.8045 43.2348 21.3244C42.716 21.3244 39.0872 21.3184 38.679 21.3184C38.5409 21.6894 37.93 23.3796 37.93 23.3796H34.1946L39.4776 10.8099C39.8516 9.91674 40.4888 9.6725 41.3405 9.6725H44.0892L46.9684 23.3798H43.6675V23.3796Z" fill="#393939"/>
</svg>
