<svg width="30" height="30" viewBox="0 0 30 30" fill="none" xmlns="http://www.w3.org/2000/svg">
<path d="M15 30C6.72907 30 0 23.2715 0 15C0 6.72836 6.72907 0 15 0C23.2709 0 30 6.72905 30 15C30 23.2709 23.2716 30 15 30ZM15 3C8.06199 3 3 8.06197 3 15C3 21.9379 8.06199 27.5 15 27.5C21.938 27.5 27 21.938 27 15C27 8.06202 21.9386 3 15 3Z" fill="#010002"/>
<path d="M15 30C6.72907 30 0 23.2715 0 15C0 6.72836 6.72907 0 15 0C23.2709 0 30 6.72905 30 15C30 23.2709 23.2716 30 15 30ZM15 3C8.06199 3 3 8.06197 3 15C3 21.9379 8.06199 27.5 15 27.5C21.938 27.5 27 21.938 27 15C27 8.06202 21.9386 3 15 3Z" stroke="black"/>
<path d="M11.3279 10.7438C11.5357 10.187 11.8253 9.70591 12.1973 9.29829C12.5705 8.88873 13.0207 8.57126 13.5476 8.34382C14.0739 8.11372 14.6626 8 15.3141 8C16.1545 8 16.8558 8.12025 17.4187 8.36219C17.9808 8.6034 18.4335 8.90383 18.7773 9.26143C19.1203 9.62035 19.3665 10.0068 19.5144 10.4197C19.6618 10.8344 19.7361 11.2216 19.7361 11.5792C19.7361 12.1715 19.6618 12.6604 19.5144 13.0437C19.3665 13.4269 19.1827 13.7543 18.9636 14.0263C18.7439 14.2984 18.5021 14.5305 18.2352 14.7218C17.9696 14.9137 17.7177 15.105 17.4811 15.2969C17.2444 15.4882 17.0341 15.7071 16.8508 15.9542C16.667 16.2007 16.5512 16.5102 16.5046 16.8804V17.5851H14.1074V16.7502C14.1427 16.2191 14.2408 15.7747 14.4001 15.4165C14.56 15.0584 14.7463 14.752 14.9591 14.4983C15.1726 14.2459 15.3973 14.0257 15.6346 13.8403C15.8707 13.6543 16.0891 13.4689 16.2912 13.2855C16.4914 13.0988 16.6551 12.8957 16.7798 12.6729C16.9037 12.4514 16.9599 12.1714 16.9478 11.8381C16.9478 11.2695 16.815 10.8495 16.548 10.578C16.2824 10.3052 15.9123 10.1697 15.4382 10.1697C15.119 10.1697 14.844 10.2341 14.6128 10.3637C14.3817 10.4933 14.1929 10.6674 14.0444 10.8836C13.8965 11.1005 13.7869 11.3542 13.7164 11.6435C13.6452 11.9354 13.61 12.2456 13.61 12.5808H11C11.0112 11.9118 11.1201 11.3011 11.3279 10.7438ZM16.6463 18.6979V21.5518H13.8581V18.6979H16.6463Z" fill="#010002"/>
</svg>
