<svg width="30" height="30" viewBox="0 0 30 30" fill="none" xmlns="http://www.w3.org/2000/svg">
<g clip-path="url(#clip0_1_690)">
<path d="M14.9715 0C12.0622 0.00552754 9.21734 0.856966 6.78335 2.45061C4.34937 4.04425 2.43135 6.31131 1.26292 8.97565C0.0944889 11.64 -0.273927 14.5866 0.202548 17.4567C0.679023 20.3267 1.97982 22.9962 3.94652 25.14C5.35115 26.6625 7.05592 27.8777 8.95341 28.7088C10.8509 29.5399 12.9 29.9689 14.9715 29.9689C17.043 29.9689 19.0921 29.5399 20.9897 28.7088C22.8871 27.8777 24.5919 26.6625 25.9965 25.14C27.9632 22.9962 29.264 20.3267 29.7405 17.4567C30.2169 14.5866 29.8485 11.64 28.6801 8.97565C27.5117 6.31131 25.5936 4.04425 23.1597 2.45061C20.7257 0.856966 17.8808 0.00552754 14.9715 0ZM14.9715 27C11.8642 26.9953 8.87988 25.7854 6.64651 23.625C7.32457 21.9743 8.47806 20.5625 9.96039 19.5689C11.4427 18.5753 13.187 18.0447 14.9715 18.0447C16.7561 18.0447 18.5002 18.5753 19.9827 19.5689C21.465 20.5625 22.6185 21.9743 23.2965 23.625C21.0632 25.7854 18.0788 26.9953 14.9715 27ZM11.9715 12C11.9715 11.4067 12.1475 10.8266 12.4771 10.3333C12.8067 9.83994 13.2753 9.45543 13.8235 9.22836C14.3716 9.0013 14.9748 8.94189 15.5568 9.05765C16.1386 9.1734 16.6733 9.45912 17.0928 9.87868C17.5124 10.2982 17.7981 10.8328 17.9139 11.4147C18.0296 11.9967 17.9701 12.5999 17.7432 13.1481C17.5161 13.6962 17.1315 14.1648 16.6381 14.4944C16.1448 14.824 15.5649 15 14.9715 15C14.1759 15 13.4128 14.6839 12.8502 14.1213C12.2876 13.5587 11.9715 12.7956 11.9715 12ZM25.3365 21C23.9963 18.7077 21.9336 16.9245 19.4715 15.93C20.2353 15.064 20.7328 13.996 20.9047 12.8542C21.0765 11.7123 20.9152 10.5452 20.4402 9.49275C19.965 8.44032 19.1964 7.54734 18.2263 6.92095C17.2563 6.29455 16.1262 5.96138 14.9715 5.96138C13.8168 5.96138 12.6867 6.29455 11.7167 6.92095C10.7466 7.54734 9.97797 8.44032 9.50289 9.49275C9.02779 10.5452 8.86648 11.7123 9.03831 12.8542C9.21012 13.996 9.70776 15.064 10.4715 15.93C8.0094 16.9245 5.94671 18.7077 4.60651 21C3.53843 19.1807 2.9741 17.1098 2.97152 15C2.97152 11.8174 4.23579 8.76516 6.48623 6.51473C8.73666 4.26428 11.7889 3 14.9715 3C18.1541 3 21.2064 4.26428 23.4569 6.51473C25.7073 8.76516 26.9715 11.8174 26.9715 15C26.969 17.1098 26.4047 19.1807 25.3365 21Z" fill="black"/>
</g>
<defs>
<clipPath id="clip0_1_690">
<rect width="30" height="30" fill="white"/>
</clipPath>
</defs>
</svg>
